<mxfile host="app.diagrams.net" agent="Mozilla/5.0 (Windows NT 10.0; Win64; x64) AppleWebKit/537.36 (KHTML, like Gecko) Chrome/133.0.0.0 Safari/537.36 OPR/118.0.0.0" version="27.0.2">
  <diagram name="Page-1" id="RmL8sgKWyJHblzqRl6CM">
    <mxGraphModel dx="8992" dy="6913" grid="1" gridSize="10" guides="1" tooltips="1" connect="1" arrows="1" fold="1" page="1" pageScale="1" pageWidth="2339" pageHeight="3300" math="0" shadow="0">
      <root>
        <mxCell id="0" />
        <mxCell id="1" parent="0" />
        <mxCell id="E01BiuHv0ZB0fYaHVFXP-1" value="" style="html=1;jettySize=18;whiteSpace=wrap;fontSize=13;fontFamily=Helvetica;strokeOpacity=100;strokeWidth=1.5;rounded=1;arcSize=20;edgeStyle=orthogonalEdgeStyle;startArrow=none;endArrow=block;endFill=1;exitX=1;exitY=0.5;exitPerimeter=0;entryX=0;entryY=0.5;entryPerimeter=0;lucidId=McXXXMRO1ofD;" edge="1" parent="1" source="E01BiuHv0ZB0fYaHVFXP-4" target="E01BiuHv0ZB0fYaHVFXP-3">
          <mxGeometry width="100" height="100" relative="1" as="geometry">
            <Array as="points" />
          </mxGeometry>
        </mxCell>
        <mxCell id="E01BiuHv0ZB0fYaHVFXP-2" value="" style="edgeStyle=orthogonalEdgeStyle;rounded=0;orthogonalLoop=1;jettySize=auto;html=1;" edge="1" parent="1" source="E01BiuHv0ZB0fYaHVFXP-3" target="E01BiuHv0ZB0fYaHVFXP-66">
          <mxGeometry relative="1" as="geometry" />
        </mxCell>
        <mxCell id="E01BiuHv0ZB0fYaHVFXP-3" value="Welcome / Splash Screen" style="html=1;overflow=block;blockSpacing=1;whiteSpace=wrap;fontSize=17.2;fontFamily=Helvetica;spacing=3.8;strokeOpacity=0;fillOpacity=100;rounded=1;absoluteArcSize=1;arcSize=12;fillColor=#9391ff;strokeWidth=0.8;lucidId=LcXXFPSC7.kD;" vertex="1" parent="1">
          <mxGeometry x="-1900" y="-2199.67" width="162" height="90" as="geometry" />
        </mxCell>
        <mxCell id="E01BiuHv0ZB0fYaHVFXP-4" value="Start" style="html=1;overflow=block;blockSpacing=1;whiteSpace=wrap;rounded=1;arcSize=50;fontSize=17.2;fontFamily=Helvetica;spacing=3.8;strokeOpacity=0;fillOpacity=100;fillColor=#6db1ff;strokeWidth=0.8;lucidId=LcXXYGVXpK_S;" vertex="1" parent="1">
          <mxGeometry x="-2080" y="-2184.67" width="120" height="60" as="geometry" />
        </mxCell>
        <mxCell id="E01BiuHv0ZB0fYaHVFXP-5" value="Home Menu" style="html=1;overflow=block;blockSpacing=1;whiteSpace=wrap;fontSize=17.2;fontFamily=Helvetica;spacing=3.8;strokeOpacity=0;fillOpacity=100;rounded=1;absoluteArcSize=1;arcSize=12;fillColor=#9391ff;strokeWidth=0.8;lucidId=UfZd2b5tyShc;" vertex="1" parent="1">
          <mxGeometry x="-1581" y="-1829.67" width="162" height="50" as="geometry" />
        </mxCell>
        <mxCell id="E01BiuHv0ZB0fYaHVFXP-6" value="" style="html=1;jettySize=18;whiteSpace=wrap;fontSize=13;strokeColor=#3a414a;strokeOpacity=100;strokeWidth=0.8;rounded=1;arcSize=24;edgeStyle=orthogonalEdgeStyle;startArrow=none;endArrow=block;endFill=1;exitX=1.009;exitY=0.433;exitPerimeter=0;lucidId=.fZdQT1~~OeH;exitDx=0;exitDy=0;" edge="1" parent="1" source="E01BiuHv0ZB0fYaHVFXP-5">
          <mxGeometry width="100" height="100" relative="1" as="geometry">
            <mxPoint x="-1290" y="-1807.67" as="targetPoint" />
          </mxGeometry>
        </mxCell>
        <mxCell id="E01BiuHv0ZB0fYaHVFXP-7" value="" style="edgeStyle=orthogonalEdgeStyle;rounded=0;orthogonalLoop=1;jettySize=auto;html=1;" edge="1" parent="1" source="E01BiuHv0ZB0fYaHVFXP-8" target="E01BiuHv0ZB0fYaHVFXP-59">
          <mxGeometry relative="1" as="geometry" />
        </mxCell>
        <mxCell id="E01BiuHv0ZB0fYaHVFXP-8" value="Symptoms Information" style="html=1;overflow=block;blockSpacing=1;whiteSpace=wrap;fontSize=17.2;fontFamily=Helvetica;spacing=3.8;strokeOpacity=0;fillOpacity=100;rounded=1;absoluteArcSize=1;arcSize=12;fillColor=#9391ff;strokeWidth=0.8;lucidId=.fZdMLb0fotT;" vertex="1" parent="1">
          <mxGeometry x="-1290" y="-1849.67" width="162" height="90" as="geometry" />
        </mxCell>
        <mxCell id="E01BiuHv0ZB0fYaHVFXP-9" value="First Aid &amp; Trivia" style="html=1;overflow=block;blockSpacing=1;whiteSpace=wrap;fontSize=17.2;fontFamily=Helvetica;spacing=3.8;strokeOpacity=0;fillOpacity=100;rounded=1;absoluteArcSize=1;arcSize=12;fillColor=#9391ff;strokeWidth=0.8;lucidId=VgZddFWcsTDO;" vertex="1" parent="1">
          <mxGeometry x="-1290" y="-1699.67" width="162" height="90" as="geometry" />
        </mxCell>
        <mxCell id="E01BiuHv0ZB0fYaHVFXP-10" value="Risk Assessment Form" style="html=1;overflow=block;blockSpacing=1;whiteSpace=wrap;fontSize=17.2;fontFamily=Helvetica;spacing=3.8;strokeOpacity=0;fillOpacity=100;rounded=1;absoluteArcSize=1;arcSize=12;fillColor=#9391ff;strokeWidth=0.8;lucidId=6gZdE_LrPKIQ;" vertex="1" parent="1">
          <mxGeometry x="-1290" y="-1479.67" width="162" height="90" as="geometry" />
        </mxCell>
        <mxCell id="E01BiuHv0ZB0fYaHVFXP-11" value="Referral Pathway" style="html=1;overflow=block;blockSpacing=1;whiteSpace=wrap;fontSize=17.2;fontFamily=Helvetica;spacing=3.8;strokeOpacity=0;fillOpacity=100;rounded=1;absoluteArcSize=1;arcSize=12;fillColor=#9391ff;strokeWidth=0.8;lucidId=ThZdV7IbDD59;" vertex="1" parent="1">
          <mxGeometry x="-1290" y="-1175.67" width="162" height="90" as="geometry" />
        </mxCell>
        <mxCell id="E01BiuHv0ZB0fYaHVFXP-12" value="Personalized Health Plan" style="html=1;overflow=block;blockSpacing=1;whiteSpace=wrap;fontSize=17.2;fontFamily=Helvetica;spacing=3.8;strokeOpacity=0;fillOpacity=100;rounded=1;absoluteArcSize=1;arcSize=12;fillColor=#9391ff;strokeWidth=0.8;lucidId=XhZdjnyPR16g;" vertex="1" parent="1">
          <mxGeometry x="-1290" y="-1025.67" width="162" height="90" as="geometry" />
        </mxCell>
        <mxCell id="E01BiuHv0ZB0fYaHVFXP-13" value="" style="html=1;jettySize=18;whiteSpace=wrap;fontSize=13;strokeColor=#3a414a;strokeOpacity=100;strokeWidth=0.8;rounded=1;arcSize=24;edgeStyle=orthogonalEdgeStyle;startArrow=none;endArrow=block;endFill=1;exitX=1;exitY=0.5;exitPerimeter=0;entryX=0.05;entryY=0.5;entryPerimeter=0;lucidId=rjZdIirP0FL8;" edge="1" parent="1" source="E01BiuHv0ZB0fYaHVFXP-12" target="E01BiuHv0ZB0fYaHVFXP-15">
          <mxGeometry width="100" height="100" relative="1" as="geometry">
            <Array as="points" />
          </mxGeometry>
        </mxCell>
        <mxCell id="E01BiuHv0ZB0fYaHVFXP-14" value="" style="edgeStyle=orthogonalEdgeStyle;rounded=0;orthogonalLoop=1;jettySize=auto;html=1;" edge="1" parent="1" source="E01BiuHv0ZB0fYaHVFXP-112" target="E01BiuHv0ZB0fYaHVFXP-107">
          <mxGeometry relative="1" as="geometry" />
        </mxCell>
        <mxCell id="E01BiuHv0ZB0fYaHVFXP-15" value="Input:&amp;nbsp;&lt;div&gt;Age &amp;amp; Gender&lt;/div&gt;" style="html=1;overflow=block;blockSpacing=1;whiteSpace=wrap;shape=parallelogram;perimeter=parallelogramPerimeter;anchorPointDirection=0;fontSize=17.2;fontFamily=Helvetica;spacing=3.8;strokeOpacity=0;fillOpacity=100;rounded=1;absoluteArcSize=1;arcSize=12;fillColor=#00c2a8;strokeWidth=0.8;lucidId=rjZd5yNzGnL3;" vertex="1" parent="1">
          <mxGeometry x="-1080" y="-1025.67" width="174" height="90" as="geometry" />
        </mxCell>
        <mxCell id="E01BiuHv0ZB0fYaHVFXP-16" value="" style="html=1;jettySize=18;whiteSpace=wrap;fontSize=13;strokeColor=#3a414a;strokeOpacity=100;strokeWidth=0.8;rounded=1;arcSize=24;edgeStyle=orthogonalEdgeStyle;startArrow=none;endArrow=block;endFill=1;entryX=0;entryY=0.5;entryPerimeter=0;lucidId=AkZdk-e~9rch;" edge="1" parent="1" target="E01BiuHv0ZB0fYaHVFXP-17">
          <mxGeometry width="100" height="100" relative="1" as="geometry">
            <Array as="points" />
            <mxPoint x="-463" y="-1434.67" as="sourcePoint" />
          </mxGeometry>
        </mxCell>
        <mxCell id="E01BiuHv0ZB0fYaHVFXP-17" value="is the user at&amp;nbsp; risk?" style="html=1;overflow=block;blockSpacing=1;whiteSpace=wrap;rhombus;fontSize=17.2;fontFamily=Helvetica;spacing=3.8;strokeColor=#e81313;strokeOpacity=100;fillOpacity=0;rounded=1;absoluteArcSize=1;arcSize=12;fillColor=#000000;strokeWidth=0.8;lucidId=AkZdRp3h81gg;" vertex="1" parent="1">
          <mxGeometry x="-386.5999999999999" y="-1479.67" width="162" height="90" as="geometry" />
        </mxCell>
        <mxCell id="E01BiuHv0ZB0fYaHVFXP-18" value="" style="html=1;jettySize=18;whiteSpace=wrap;fontSize=13.5;align=center;strokeColor=#3a414a;strokeOpacity=100;strokeWidth=0.8;rounded=1;arcSize=24;edgeStyle=orthogonalEdgeStyle;startArrow=none;endArrow=block;endFill=1;exitX=0.5;exitY=0.987;exitPerimeter=0;entryX=0.5;entryY=0;entryPerimeter=0;lucidId=6lZd5qj4NZoG;" edge="1" parent="1" source="E01BiuHv0ZB0fYaHVFXP-17" target="E01BiuHv0ZB0fYaHVFXP-20">
          <mxGeometry width="100" height="100" relative="1" as="geometry">
            <Array as="points" />
          </mxGeometry>
        </mxCell>
        <mxCell id="E01BiuHv0ZB0fYaHVFXP-19" value="No" style="text;html=1;resizable=0;labelBackgroundColor=default;align=center;verticalAlign=middle;fontSize=13.5;" vertex="1" parent="E01BiuHv0ZB0fYaHVFXP-18">
          <mxGeometry relative="1" as="geometry" />
        </mxCell>
        <mxCell id="E01BiuHv0ZB0fYaHVFXP-20" value="Show recommended diet and recommended exercises" style="html=1;overflow=block;blockSpacing=1;whiteSpace=wrap;fontSize=13.5;align=center;spacing=9;strokeOpacity=0;fillOpacity=100;rounded=1;absoluteArcSize=1;arcSize=12;fillColor=#9391ff;strokeWidth=0.8;lucidId=_lZdIfbfwq8p;" vertex="1" parent="1">
          <mxGeometry x="-390.5999999999999" y="-1316.67" width="166" height="93" as="geometry" />
        </mxCell>
        <mxCell id="E01BiuHv0ZB0fYaHVFXP-21" value="" style="html=1;jettySize=18;whiteSpace=wrap;fontSize=13;strokeColor=#3a414a;strokeOpacity=100;strokeWidth=0.8;rounded=1;arcSize=24;edgeStyle=orthogonalEdgeStyle;startArrow=none;endArrow=block;endFill=1;exitX=0.5;exitY=1;exitPerimeter=0;entryX=0.5;entryY=0;entryPerimeter=0;lucidId=nnZdI.2VYj_w;" edge="1" parent="1" source="E01BiuHv0ZB0fYaHVFXP-20" target="E01BiuHv0ZB0fYaHVFXP-22">
          <mxGeometry width="100" height="100" relative="1" as="geometry">
            <Array as="points" />
          </mxGeometry>
        </mxCell>
        <mxCell id="E01BiuHv0ZB0fYaHVFXP-22" value="share the results?" style="html=1;overflow=block;blockSpacing=1;whiteSpace=wrap;rhombus;fontSize=13.5;fontColor=#3a414a;align=center;spacing=9;strokeColor=#e81313;strokeOpacity=100;fillOpacity=0;rounded=1;absoluteArcSize=1;arcSize=12;fillColor=#000000;strokeWidth=0.8;lucidId=nnZdo8.aQRXQ;" vertex="1" parent="1">
          <mxGeometry x="-390.5999999999999" y="-1162.67" width="166" height="93" as="geometry" />
        </mxCell>
        <mxCell id="E01BiuHv0ZB0fYaHVFXP-23" value="" style="html=1;jettySize=18;whiteSpace=wrap;fontSize=13.5;fontColor=#3a414a;align=center;strokeColor=#3a414a;strokeOpacity=100;strokeWidth=0.8;rounded=1;arcSize=24;edgeStyle=orthogonalEdgeStyle;startArrow=none;endArrow=block;endFill=1;exitX=1;exitY=0.5;exitPerimeter=0;entryX=0;entryY=0.5;entryPerimeter=0;lucidId=8nZdn-Sn5cYr;" edge="1" parent="1" source="E01BiuHv0ZB0fYaHVFXP-22" target="E01BiuHv0ZB0fYaHVFXP-25">
          <mxGeometry width="100" height="100" relative="1" as="geometry">
            <Array as="points" />
          </mxGeometry>
        </mxCell>
        <mxCell id="E01BiuHv0ZB0fYaHVFXP-24" value="Yes" style="text;html=1;resizable=0;labelBackgroundColor=default;align=center;verticalAlign=middle;fontColor=#3a414a;fontSize=13.5;" vertex="1" parent="E01BiuHv0ZB0fYaHVFXP-23">
          <mxGeometry relative="1" as="geometry" />
        </mxCell>
        <mxCell id="E01BiuHv0ZB0fYaHVFXP-25" value="Share the results to other media" style="html=1;overflow=block;blockSpacing=1;whiteSpace=wrap;fontSize=13.5;fontColor=#3a414a;align=center;spacing=9;strokeOpacity=0;fillOpacity=100;rounded=1;absoluteArcSize=1;arcSize=12;fillColor=#9391ff;strokeWidth=0.8;lucidId=8nZdLSGvLZ_e;" vertex="1" parent="1">
          <mxGeometry x="-164.5999999999999" y="-1162.67" width="166" height="93" as="geometry" />
        </mxCell>
        <mxCell id="E01BiuHv0ZB0fYaHVFXP-26" value="" style="html=1;jettySize=18;whiteSpace=wrap;fontSize=13.5;fontColor=#3a414a;align=center;strokeColor=#3a414a;strokeOpacity=100;strokeWidth=0.8;rounded=1;arcSize=24;edgeStyle=orthogonalEdgeStyle;startArrow=none;endArrow=block;endFill=1;exitX=0.5;exitY=1;exitPerimeter=0;entryX=0.5;entryY=0;entryPerimeter=0;lucidId=ypZdgtOKcrXy;" edge="1" parent="1" source="E01BiuHv0ZB0fYaHVFXP-22" target="E01BiuHv0ZB0fYaHVFXP-28">
          <mxGeometry width="100" height="100" relative="1" as="geometry">
            <Array as="points" />
          </mxGeometry>
        </mxCell>
        <mxCell id="E01BiuHv0ZB0fYaHVFXP-27" value="No" style="text;html=1;resizable=0;labelBackgroundColor=default;align=center;verticalAlign=middle;fontColor=#3a414a;fontSize=13.5;" vertex="1" parent="E01BiuHv0ZB0fYaHVFXP-26">
          <mxGeometry relative="1" as="geometry" />
        </mxCell>
        <mxCell id="E01BiuHv0ZB0fYaHVFXP-28" value="Save results " style="html=1;overflow=block;blockSpacing=1;whiteSpace=wrap;fontSize=13.5;fontColor=#3a414a;align=center;spacing=9;strokeOpacity=0;fillOpacity=100;rounded=1;absoluteArcSize=1;arcSize=12;fillColor=#9391ff;strokeWidth=0.8;lucidId=ypZdAMkzCrEt;" vertex="1" parent="1">
          <mxGeometry x="-390.5999999999999" y="-1009.6700000000001" width="166" height="93" as="geometry" />
        </mxCell>
        <mxCell id="E01BiuHv0ZB0fYaHVFXP-29" value="" style="html=1;jettySize=18;whiteSpace=wrap;fontSize=13.5;align=center;strokeColor=#3a414a;strokeOpacity=100;strokeWidth=0.8;rounded=1;arcSize=24;edgeStyle=orthogonalEdgeStyle;startArrow=none;endArrow=block;endFill=1;exitX=0.981;exitY=0.5;exitPerimeter=0;entryX=0;entryY=0.5;entryPerimeter=0;lucidId=-rZd1AjzQ8Fg;" edge="1" parent="1" source="E01BiuHv0ZB0fYaHVFXP-17" target="E01BiuHv0ZB0fYaHVFXP-32">
          <mxGeometry width="100" height="100" relative="1" as="geometry">
            <Array as="points" />
          </mxGeometry>
        </mxCell>
        <mxCell id="E01BiuHv0ZB0fYaHVFXP-30" value="Yes" style="text;html=1;resizable=0;labelBackgroundColor=default;align=center;verticalAlign=middle;fontSize=13.5;" vertex="1" parent="E01BiuHv0ZB0fYaHVFXP-29">
          <mxGeometry relative="1" as="geometry" />
        </mxCell>
        <mxCell id="E01BiuHv0ZB0fYaHVFXP-31" style="edgeStyle=orthogonalEdgeStyle;rounded=0;orthogonalLoop=1;jettySize=auto;html=1;entryX=1;entryY=0.5;entryDx=0;entryDy=0;" edge="1" parent="1" source="E01BiuHv0ZB0fYaHVFXP-32" target="E01BiuHv0ZB0fYaHVFXP-45">
          <mxGeometry relative="1" as="geometry">
            <Array as="points">
              <mxPoint x="160" y="-1434.67" />
              <mxPoint x="160" y="-812.6700000000001" />
            </Array>
          </mxGeometry>
        </mxCell>
        <mxCell id="E01BiuHv0ZB0fYaHVFXP-32" value="Result with non-scary immediate health check up suggestions" style="html=1;overflow=block;blockSpacing=1;whiteSpace=wrap;fontSize=17.2;fontFamily=Helvetica;spacing=3.8;strokeOpacity=0;fillOpacity=100;rounded=1;absoluteArcSize=1;arcSize=12;fillColor=#9391ff;strokeWidth=0.8;lucidId=-rZdd~Kvk2Bn;" vertex="1" parent="1">
          <mxGeometry x="-124.59999999999991" y="-1479.67" width="214.6" height="90" as="geometry" />
        </mxCell>
        <mxCell id="E01BiuHv0ZB0fYaHVFXP-33" value="" style="html=1;jettySize=18;whiteSpace=wrap;fontSize=13;strokeColor=#3a414a;strokeOpacity=100;strokeWidth=0.8;rounded=1;arcSize=24;edgeStyle=orthogonalEdgeStyle;startArrow=none;endArrow=block;endFill=1;exitX=1;exitY=0.5;exitPerimeter=0;entryX=0.05;entryY=0.5;entryPerimeter=0;lucidId=~sZdB-0fzZBq;" edge="1" parent="1" source="E01BiuHv0ZB0fYaHVFXP-11" target="E01BiuHv0ZB0fYaHVFXP-34">
          <mxGeometry width="100" height="100" relative="1" as="geometry">
            <Array as="points" />
          </mxGeometry>
        </mxCell>
        <mxCell id="E01BiuHv0ZB0fYaHVFXP-34" value="Input:&amp;nbsp;&lt;div&gt;Location&lt;/div&gt;" style="html=1;overflow=block;blockSpacing=1;whiteSpace=wrap;shape=parallelogram;perimeter=parallelogramPerimeter;anchorPointDirection=0;fontSize=17.2;fontFamily=Helvetica;spacing=3.8;strokeOpacity=0;fillOpacity=100;rounded=1;absoluteArcSize=1;arcSize=12;fillColor=#00c2a8;strokeWidth=0.8;lucidId=~sZddfNjQ~Oz;" vertex="1" parent="1">
          <mxGeometry x="-1068" y="-1175.67" width="162" height="90" as="geometry" />
        </mxCell>
        <mxCell id="E01BiuHv0ZB0fYaHVFXP-35" value="" style="html=1;jettySize=18;whiteSpace=wrap;fontSize=13;strokeColor=#3a414a;strokeOpacity=100;strokeWidth=0.8;rounded=1;arcSize=24;edgeStyle=orthogonalEdgeStyle;startArrow=none;endArrow=block;endFill=1;exitX=1;exitY=0.5;entryX=0;entryY=0.5;entryPerimeter=0;lucidId=KuZd7Z-7W22m;exitDx=0;exitDy=0;" edge="1" parent="1" source="E01BiuHv0ZB0fYaHVFXP-34" target="E01BiuHv0ZB0fYaHVFXP-36">
          <mxGeometry width="100" height="100" relative="1" as="geometry">
            <Array as="points" />
          </mxGeometry>
        </mxCell>
        <mxCell id="E01BiuHv0ZB0fYaHVFXP-36" value="Show nearby free/easy access health services" style="html=1;overflow=block;blockSpacing=1;whiteSpace=wrap;fontSize=17.2;fontFamily=Helvetica;spacing=3.8;strokeOpacity=0;fillOpacity=100;rounded=1;absoluteArcSize=1;arcSize=12;fillColor=#9391ff;strokeWidth=0.8;lucidId=KuZdEeHLWtph;" vertex="1" parent="1">
          <mxGeometry x="-847" y="-1175.67" width="162" height="90" as="geometry" />
        </mxCell>
        <mxCell id="E01BiuHv0ZB0fYaHVFXP-37" value="" style="html=1;jettySize=18;whiteSpace=wrap;fontSize=13;strokeColor=#3a414a;strokeOpacity=100;strokeWidth=0.8;rounded=1;arcSize=24;edgeStyle=orthogonalEdgeStyle;startArrow=none;endArrow=block;endFill=1;exitX=1;exitY=0.5;exitPerimeter=0;entryX=0;entryY=0.5;entryPerimeter=0;lucidId=xvZdgR3pskNT;" edge="1" parent="1" source="E01BiuHv0ZB0fYaHVFXP-36" target="E01BiuHv0ZB0fYaHVFXP-38">
          <mxGeometry width="100" height="100" relative="1" as="geometry">
            <Array as="points" />
          </mxGeometry>
        </mxCell>
        <mxCell id="E01BiuHv0ZB0fYaHVFXP-38" value="Process" style="html=1;overflow=block;blockSpacing=1;whiteSpace=wrap;fontSize=17.2;fontFamily=Helvetica;spacing=3.8;strokeOpacity=0;fillOpacity=100;rounded=1;absoluteArcSize=1;arcSize=12;fillColor=#9391ff;strokeWidth=0.8;lucidId=xvZdBUd2wmk6;" vertex="1" parent="1">
          <mxGeometry x="-625" y="-1175.67" width="162" height="90" as="geometry" />
        </mxCell>
        <mxCell id="E01BiuHv0ZB0fYaHVFXP-39" value="" style="html=1;jettySize=18;whiteSpace=wrap;fontSize=13;strokeColor=#3a414a;strokeOpacity=100;strokeWidth=0.8;rounded=1;arcSize=24;edgeStyle=orthogonalEdgeStyle;startArrow=none;endArrow=block;endFill=1;exitX=0.5;exitY=1;exitPerimeter=0;entryX=0.5;entryY=0;entryPerimeter=0;lucidId=dwZdutxn7LAP;" edge="1" parent="1" source="E01BiuHv0ZB0fYaHVFXP-28">
          <mxGeometry width="100" height="100" relative="1" as="geometry">
            <Array as="points" />
            <mxPoint x="-307.5999999999999" y="-856.6700000000001" as="targetPoint" />
          </mxGeometry>
        </mxCell>
        <mxCell id="E01BiuHv0ZB0fYaHVFXP-40" style="edgeStyle=orthogonalEdgeStyle;rounded=0;orthogonalLoop=1;jettySize=auto;html=1;exitX=0;exitY=0.5;exitDx=0;exitDy=0;entryX=0.5;entryY=1;entryDx=0;entryDy=0;" edge="1" parent="1" source="E01BiuHv0ZB0fYaHVFXP-45" target="E01BiuHv0ZB0fYaHVFXP-5">
          <mxGeometry relative="1" as="geometry">
            <mxPoint x="-1510" y="-1478.336788736979" as="targetPoint" />
          </mxGeometry>
        </mxCell>
        <mxCell id="E01BiuHv0ZB0fYaHVFXP-41" value="Yes" style="edgeLabel;html=1;align=center;verticalAlign=middle;resizable=0;points=[];" vertex="1" connectable="0" parent="E01BiuHv0ZB0fYaHVFXP-40">
          <mxGeometry x="-0.9338" y="-5" relative="1" as="geometry">
            <mxPoint as="offset" />
          </mxGeometry>
        </mxCell>
        <mxCell id="E01BiuHv0ZB0fYaHVFXP-42" value="" style="edgeStyle=orthogonalEdgeStyle;rounded=0;orthogonalLoop=1;jettySize=auto;html=1;" edge="1" parent="1" source="E01BiuHv0ZB0fYaHVFXP-45" target="E01BiuHv0ZB0fYaHVFXP-3">
          <mxGeometry relative="1" as="geometry">
            <mxPoint x="-307.5999999999999" y="-719.6700000000001" as="targetPoint" />
            <Array as="points">
              <mxPoint x="-308" y="-649.6700000000001" />
              <mxPoint x="-1819" y="-649.6700000000001" />
            </Array>
          </mxGeometry>
        </mxCell>
        <mxCell id="E01BiuHv0ZB0fYaHVFXP-43" value="No" style="edgeLabel;html=1;align=center;verticalAlign=middle;resizable=0;points=[];" vertex="1" connectable="0" parent="E01BiuHv0ZB0fYaHVFXP-42">
          <mxGeometry x="-0.382" y="-4" relative="1" as="geometry">
            <mxPoint as="offset" />
          </mxGeometry>
        </mxCell>
        <mxCell id="E01BiuHv0ZB0fYaHVFXP-44" value="No" style="edgeLabel;html=1;align=center;verticalAlign=middle;resizable=0;points=[];" vertex="1" connectable="0" parent="E01BiuHv0ZB0fYaHVFXP-42">
          <mxGeometry x="-0.9571" y="2" relative="1" as="geometry">
            <mxPoint as="offset" />
          </mxGeometry>
        </mxCell>
        <mxCell id="E01BiuHv0ZB0fYaHVFXP-45" value="return to homepage?" style="html=1;overflow=block;blockSpacing=1;whiteSpace=wrap;rhombus;fontSize=13.5;fontColor=#3a414a;align=center;spacing=9;strokeColor=#e81313;strokeOpacity=100;fillOpacity=0;rounded=1;absoluteArcSize=1;arcSize=12;fillColor=#000000;strokeWidth=0.8;lucidId=dwZdSY3Z2HuL;" vertex="1" parent="1">
          <mxGeometry x="-390.5999999999999" y="-859.6700000000001" width="166" height="93" as="geometry" />
        </mxCell>
        <mxCell id="E01BiuHv0ZB0fYaHVFXP-46" value="" style="html=1;jettySize=18;whiteSpace=wrap;fontSize=13;strokeColor=#3a414a;strokeOpacity=100;strokeWidth=0.8;rounded=1;arcSize=24;edgeStyle=orthogonalEdgeStyle;startArrow=none;endArrow=block;endFill=1;exitX=1;exitY=0.5;exitPerimeter=0;entryX=0;entryY=0.5;entryPerimeter=0;lucidId=Bb0dsjdQ~AN1;" edge="1" parent="1" source="E01BiuHv0ZB0fYaHVFXP-10" target="E01BiuHv0ZB0fYaHVFXP-48">
          <mxGeometry width="100" height="100" relative="1" as="geometry">
            <Array as="points" />
          </mxGeometry>
        </mxCell>
        <mxCell id="E01BiuHv0ZB0fYaHVFXP-47" value="No" style="edgeStyle=orthogonalEdgeStyle;rounded=0;orthogonalLoop=1;jettySize=auto;html=1;" edge="1" parent="1" source="E01BiuHv0ZB0fYaHVFXP-48" target="E01BiuHv0ZB0fYaHVFXP-55">
          <mxGeometry relative="1" as="geometry" />
        </mxCell>
        <mxCell id="E01BiuHv0ZB0fYaHVFXP-48" value="Do you have philhealth" style="html=1;overflow=block;blockSpacing=1;whiteSpace=wrap;rhombus;fontSize=17.2;fontFamily=Helvetica;spacing=3.8;strokeColor=#e81313;strokeOpacity=100;fillOpacity=0;rounded=1;absoluteArcSize=1;arcSize=12;fillColor=#000000;strokeWidth=0.8;lucidId=Bb0dQlQsVt-O;" vertex="1" parent="1">
          <mxGeometry x="-1068" y="-1479.67" width="162" height="90" as="geometry" />
        </mxCell>
        <mxCell id="E01BiuHv0ZB0fYaHVFXP-49" value="" style="html=1;jettySize=18;whiteSpace=wrap;fontSize=13.5;fontColor=#3a414a;align=center;strokeColor=#3a414a;strokeOpacity=100;strokeWidth=0.8;rounded=1;arcSize=24;edgeStyle=orthogonalEdgeStyle;startArrow=none;endArrow=block;endFill=1;exitX=1;exitY=0.5;exitPerimeter=0;entryX=0.05;entryY=0.5;entryPerimeter=0;lucidId=5c0dK1.Rc9O3;" edge="1" parent="1" source="E01BiuHv0ZB0fYaHVFXP-48" target="E01BiuHv0ZB0fYaHVFXP-51">
          <mxGeometry width="100" height="100" relative="1" as="geometry">
            <Array as="points" />
          </mxGeometry>
        </mxCell>
        <mxCell id="E01BiuHv0ZB0fYaHVFXP-50" value="Yes" style="text;html=1;resizable=0;labelBackgroundColor=default;align=center;verticalAlign=middle;fontColor=#3a414a;fontSize=13.5;" vertex="1" parent="E01BiuHv0ZB0fYaHVFXP-49">
          <mxGeometry relative="1" as="geometry" />
        </mxCell>
        <mxCell id="E01BiuHv0ZB0fYaHVFXP-51" value="Input philhealth number" style="html=1;overflow=block;blockSpacing=1;whiteSpace=wrap;shape=parallelogram;perimeter=parallelogramPerimeter;anchorPointDirection=0;fontSize=17.2;fontFamily=Helvetica;spacing=3.8;strokeOpacity=0;fillOpacity=100;rounded=1;absoluteArcSize=1;arcSize=12;fillColor=#00C2A8;strokeWidth=0.8;lucidId=5c0dB3omWlAb;" vertex="1" parent="1">
          <mxGeometry x="-847" y="-1479.67" width="162" height="90" as="geometry" />
        </mxCell>
        <mxCell id="E01BiuHv0ZB0fYaHVFXP-52" value="" style="html=1;jettySize=18;whiteSpace=wrap;fontSize=13;strokeColor=#3a414a;strokeOpacity=100;strokeWidth=0.8;rounded=1;arcSize=24;edgeStyle=orthogonalEdgeStyle;startArrow=none;endArrow=block;endFill=1;exitX=0.95;exitY=0.5;exitPerimeter=0;entryX=0;entryY=0.5;entryPerimeter=0;lucidId=Dd0d7X~0IJPB;" edge="1" parent="1" source="E01BiuHv0ZB0fYaHVFXP-51" target="E01BiuHv0ZB0fYaHVFXP-53">
          <mxGeometry width="100" height="100" relative="1" as="geometry">
            <Array as="points" />
          </mxGeometry>
        </mxCell>
        <mxCell id="E01BiuHv0ZB0fYaHVFXP-53" value="Take Assessment" style="html=1;overflow=block;blockSpacing=1;whiteSpace=wrap;fontSize=17.2;fontFamily=Helvetica;spacing=3.8;strokeOpacity=0;fillOpacity=100;rounded=1;absoluteArcSize=1;arcSize=12;fillColor=#9391ff;strokeWidth=0.8;lucidId=Dd0dv17I9.ka;" vertex="1" parent="1">
          <mxGeometry x="-625" y="-1479.67" width="162" height="90" as="geometry" />
        </mxCell>
        <mxCell id="E01BiuHv0ZB0fYaHVFXP-54" style="edgeStyle=orthogonalEdgeStyle;rounded=0;orthogonalLoop=1;jettySize=auto;html=1;entryX=0.5;entryY=1;entryDx=0;entryDy=0;" edge="1" parent="1" source="E01BiuHv0ZB0fYaHVFXP-55" target="E01BiuHv0ZB0fYaHVFXP-53">
          <mxGeometry relative="1" as="geometry" />
        </mxCell>
        <mxCell id="E01BiuHv0ZB0fYaHVFXP-55" value="Pay the assessment" style="shape=parallelogram;perimeter=parallelogramPerimeter;whiteSpace=wrap;html=1;fixedSize=1;fontSize=17.2;fillColor=light-dark(#000000,#009079);strokeColor=#e81313;spacing=3.8;rounded=1;absoluteArcSize=1;arcSize=12;strokeWidth=0.8;" vertex="1" parent="1">
          <mxGeometry x="-1055.5" y="-1309.67" width="137" height="65" as="geometry" />
        </mxCell>
        <mxCell id="E01BiuHv0ZB0fYaHVFXP-56" value="Emergency Tips" style="whiteSpace=wrap;html=1;fontSize=17.2;fillColor=#9391ff;spacing=3.8;rounded=1;absoluteArcSize=1;arcSize=12;strokeWidth=0.8;" vertex="1" parent="1">
          <mxGeometry x="-980" y="-1709.67" width="120" height="60" as="geometry" />
        </mxCell>
        <mxCell id="E01BiuHv0ZB0fYaHVFXP-57" value="Fun Facts / Trivia" style="whiteSpace=wrap;html=1;fontSize=17.2;fillColor=#9391ff;spacing=3.8;rounded=1;absoluteArcSize=1;arcSize=12;strokeWidth=0.8;" vertex="1" parent="1">
          <mxGeometry x="-980" y="-1628.67" width="120" height="60" as="geometry" />
        </mxCell>
        <mxCell id="E01BiuHv0ZB0fYaHVFXP-58" style="edgeStyle=orthogonalEdgeStyle;rounded=0;orthogonalLoop=1;jettySize=auto;html=1;" edge="1" parent="1" source="E01BiuHv0ZB0fYaHVFXP-59" target="E01BiuHv0ZB0fYaHVFXP-63">
          <mxGeometry relative="1" as="geometry" />
        </mxCell>
        <mxCell id="E01BiuHv0ZB0fYaHVFXP-59" value="Most to Least Common Symptoms" style="whiteSpace=wrap;html=1;fontSize=17.2;fillColor=#9391ff;spacing=3.8;rounded=1;absoluteArcSize=1;arcSize=12;strokeWidth=0.8;" vertex="1" parent="1">
          <mxGeometry x="-1027" y="-1834.67" width="187" height="60" as="geometry" />
        </mxCell>
        <mxCell id="E01BiuHv0ZB0fYaHVFXP-60" style="edgeStyle=orthogonalEdgeStyle;rounded=0;orthogonalLoop=1;jettySize=auto;html=1;" edge="1" parent="1" source="E01BiuHv0ZB0fYaHVFXP-63" target="E01BiuHv0ZB0fYaHVFXP-48">
          <mxGeometry relative="1" as="geometry">
            <Array as="points">
              <mxPoint x="-685" y="-1519.67" />
              <mxPoint x="-987" y="-1519.67" />
            </Array>
          </mxGeometry>
        </mxCell>
        <mxCell id="E01BiuHv0ZB0fYaHVFXP-61" value="Yes&lt;div&gt;&lt;br&gt;&lt;/div&gt;" style="edgeLabel;html=1;align=center;verticalAlign=middle;resizable=0;points=[];" vertex="1" connectable="0" parent="E01BiuHv0ZB0fYaHVFXP-60">
          <mxGeometry x="-0.6781" y="-1" relative="1" as="geometry">
            <mxPoint as="offset" />
          </mxGeometry>
        </mxCell>
        <mxCell id="E01BiuHv0ZB0fYaHVFXP-62" style="edgeStyle=orthogonalEdgeStyle;rounded=0;orthogonalLoop=1;jettySize=auto;html=1;" edge="1" parent="1" source="E01BiuHv0ZB0fYaHVFXP-63" target="E01BiuHv0ZB0fYaHVFXP-5">
          <mxGeometry relative="1" as="geometry">
            <Array as="points">
              <mxPoint x="-685" y="-1869.67" />
              <mxPoint x="-1410" y="-1869.67" />
              <mxPoint x="-1410" y="-1804.67" />
            </Array>
          </mxGeometry>
        </mxCell>
        <mxCell id="E01BiuHv0ZB0fYaHVFXP-63" value="&lt;p&gt;&lt;font style=&quot;font-size: 12px;&quot;&gt;Take the risk assessment?&lt;/font&gt;&lt;/p&gt;" style="rhombus;whiteSpace=wrap;html=1;fontSize=17.2;fillColor=light-dark(#9391FF,transparent);spacing=3.8;rounded=1;absoluteArcSize=1;arcSize=12;strokeWidth=0.8;strokeColor=light-dark(#000000,#FF1206);" vertex="1" parent="1">
          <mxGeometry x="-740" y="-1842.17" width="110" height="75" as="geometry" />
        </mxCell>
        <mxCell id="E01BiuHv0ZB0fYaHVFXP-64" value="" style="edgeStyle=orthogonalEdgeStyle;rounded=0;orthogonalLoop=1;jettySize=auto;html=1;" edge="1" parent="1" source="E01BiuHv0ZB0fYaHVFXP-66" target="E01BiuHv0ZB0fYaHVFXP-68">
          <mxGeometry relative="1" as="geometry" />
        </mxCell>
        <mxCell id="E01BiuHv0ZB0fYaHVFXP-65" value="" style="edgeStyle=orthogonalEdgeStyle;rounded=0;orthogonalLoop=1;jettySize=auto;html=1;" edge="1" parent="1" source="E01BiuHv0ZB0fYaHVFXP-66" target="E01BiuHv0ZB0fYaHVFXP-70">
          <mxGeometry relative="1" as="geometry" />
        </mxCell>
        <mxCell id="E01BiuHv0ZB0fYaHVFXP-66" value="WellBaby&lt;div&gt;or&lt;/div&gt;&lt;div&gt;HyperCare&lt;/div&gt;" style="rhombus;whiteSpace=wrap;html=1;fontSize=17.2;fillColor=light-dark(#9391FF,transparent);spacing=3.8;rounded=1;absoluteArcSize=1;arcSize=12;strokeWidth=0.8;strokeColor=light-dark(#000000,#FF240C);" vertex="1" parent="1">
          <mxGeometry x="-1669" y="-2239.67" width="169" height="170" as="geometry" />
        </mxCell>
        <mxCell id="E01BiuHv0ZB0fYaHVFXP-67" value="" style="edgeStyle=orthogonalEdgeStyle;rounded=0;orthogonalLoop=1;jettySize=auto;html=1;" edge="1" parent="1" source="E01BiuHv0ZB0fYaHVFXP-68" target="E01BiuHv0ZB0fYaHVFXP-93">
          <mxGeometry relative="1" as="geometry" />
        </mxCell>
        <mxCell id="E01BiuHv0ZB0fYaHVFXP-68" value="WellBaby" style="whiteSpace=wrap;html=1;fontSize=17.2;fillColor=#9391ff;strokeColor=light-dark(#000000,transparent);spacing=3.8;rounded=1;absoluteArcSize=1;arcSize=12;strokeWidth=0.8;" vertex="1" parent="1">
          <mxGeometry x="-1560" y="-2369.67" width="120" height="60" as="geometry" />
        </mxCell>
        <mxCell id="E01BiuHv0ZB0fYaHVFXP-69" style="edgeStyle=orthogonalEdgeStyle;rounded=0;orthogonalLoop=1;jettySize=auto;html=1;" edge="1" parent="1" source="E01BiuHv0ZB0fYaHVFXP-70" target="E01BiuHv0ZB0fYaHVFXP-5">
          <mxGeometry relative="1" as="geometry" />
        </mxCell>
        <mxCell id="E01BiuHv0ZB0fYaHVFXP-70" value="HyperCare" style="whiteSpace=wrap;html=1;fontSize=17.2;fillColor=#9391ff;strokeColor=light-dark(#000000,transparent);spacing=3.8;rounded=1;absoluteArcSize=1;arcSize=12;strokeWidth=0.8;direction=west;" vertex="1" parent="1">
          <mxGeometry x="-1560" y="-1999.67" width="120" height="60" as="geometry" />
        </mxCell>
        <mxCell id="E01BiuHv0ZB0fYaHVFXP-71" value="" style="endArrow=none;html=1;rounded=0;" edge="1" parent="1" source="E01BiuHv0ZB0fYaHVFXP-76">
          <mxGeometry width="50" height="50" relative="1" as="geometry">
            <mxPoint x="-1360" y="-1049.67" as="sourcePoint" />
            <mxPoint x="-1360" y="-1809.67" as="targetPoint" />
          </mxGeometry>
        </mxCell>
        <mxCell id="E01BiuHv0ZB0fYaHVFXP-72" value="" style="ellipse;whiteSpace=wrap;html=1;fillColor=light-dark(#FFFFFF,#000000);" vertex="1" parent="1">
          <mxGeometry x="-1370" y="-1814.67" width="20" height="20" as="geometry" />
        </mxCell>
        <mxCell id="E01BiuHv0ZB0fYaHVFXP-73" value="" style="endArrow=classic;html=1;rounded=0;" edge="1" parent="1">
          <mxGeometry width="50" height="50" relative="1" as="geometry">
            <mxPoint x="-1360" y="-1434.92" as="sourcePoint" />
            <mxPoint x="-1290" y="-1434.92" as="targetPoint" />
          </mxGeometry>
        </mxCell>
        <mxCell id="E01BiuHv0ZB0fYaHVFXP-74" value="" style="endArrow=classic;html=1;rounded=0;" edge="1" parent="1">
          <mxGeometry width="50" height="50" relative="1" as="geometry">
            <mxPoint x="-1360" y="-1659.92" as="sourcePoint" />
            <mxPoint x="-1290" y="-1659.92" as="targetPoint" />
          </mxGeometry>
        </mxCell>
        <mxCell id="E01BiuHv0ZB0fYaHVFXP-75" value="" style="endArrow=none;html=1;rounded=0;" edge="1" parent="1" source="E01BiuHv0ZB0fYaHVFXP-80" target="E01BiuHv0ZB0fYaHVFXP-76">
          <mxGeometry width="50" height="50" relative="1" as="geometry">
            <mxPoint x="-1360" y="-1049.67" as="sourcePoint" />
            <mxPoint x="-1360" y="-1809.67" as="targetPoint" />
          </mxGeometry>
        </mxCell>
        <mxCell id="E01BiuHv0ZB0fYaHVFXP-76" value="" style="ellipse;whiteSpace=wrap;html=1;fillColor=light-dark(#FFFFFF,#000000);" vertex="1" parent="1">
          <mxGeometry x="-1370" y="-1669.67" width="20" height="20" as="geometry" />
        </mxCell>
        <mxCell id="E01BiuHv0ZB0fYaHVFXP-77" value="" style="endArrow=classic;html=1;rounded=0;" edge="1" parent="1">
          <mxGeometry width="50" height="50" relative="1" as="geometry">
            <mxPoint x="-1360" y="-1129.67" as="sourcePoint" />
            <mxPoint x="-1290" y="-1129.67" as="targetPoint" />
          </mxGeometry>
        </mxCell>
        <mxCell id="E01BiuHv0ZB0fYaHVFXP-78" value="" style="endArrow=classic;html=1;rounded=0;" edge="1" parent="1">
          <mxGeometry width="50" height="50" relative="1" as="geometry">
            <mxPoint x="-1360" y="-981.2" as="sourcePoint" />
            <mxPoint x="-1290" y="-981.2" as="targetPoint" />
          </mxGeometry>
        </mxCell>
        <mxCell id="E01BiuHv0ZB0fYaHVFXP-79" value="" style="endArrow=none;html=1;rounded=0;" edge="1" parent="1" source="E01BiuHv0ZB0fYaHVFXP-82" target="E01BiuHv0ZB0fYaHVFXP-80">
          <mxGeometry width="50" height="50" relative="1" as="geometry">
            <mxPoint x="-1360" y="-979.6700000000001" as="sourcePoint" />
            <mxPoint x="-1360" y="-1579.67" as="targetPoint" />
          </mxGeometry>
        </mxCell>
        <mxCell id="E01BiuHv0ZB0fYaHVFXP-80" value="" style="ellipse;whiteSpace=wrap;html=1;fillColor=light-dark(#FFFFFF,#000000);" vertex="1" parent="1">
          <mxGeometry x="-1370" y="-1444.67" width="20" height="20" as="geometry" />
        </mxCell>
        <mxCell id="E01BiuHv0ZB0fYaHVFXP-81" value="" style="endArrow=none;html=1;rounded=0;" edge="1" parent="1" source="E01BiuHv0ZB0fYaHVFXP-84" target="E01BiuHv0ZB0fYaHVFXP-82">
          <mxGeometry width="50" height="50" relative="1" as="geometry">
            <mxPoint x="-1360" y="-979.6700000000001" as="sourcePoint" />
            <mxPoint x="-1360" y="-1424.67" as="targetPoint" />
          </mxGeometry>
        </mxCell>
        <mxCell id="E01BiuHv0ZB0fYaHVFXP-82" value="" style="ellipse;whiteSpace=wrap;html=1;fillColor=light-dark(#FFFFFF,#000000);" vertex="1" parent="1">
          <mxGeometry x="-1370" y="-1140.67" width="20" height="20" as="geometry" />
        </mxCell>
        <mxCell id="E01BiuHv0ZB0fYaHVFXP-83" value="" style="endArrow=none;html=1;rounded=0;" edge="1" parent="1" target="E01BiuHv0ZB0fYaHVFXP-84">
          <mxGeometry width="50" height="50" relative="1" as="geometry">
            <mxPoint x="-1360" y="-979.6700000000001" as="sourcePoint" />
            <mxPoint x="-1360" y="-1120.67" as="targetPoint" />
          </mxGeometry>
        </mxCell>
        <mxCell id="E01BiuHv0ZB0fYaHVFXP-84" value="" style="ellipse;whiteSpace=wrap;html=1;fillColor=light-dark(#FFFFFF,#000000);rotation=5;" vertex="1" parent="1">
          <mxGeometry x="-1370" y="-990.6700000000001" width="20" height="20" as="geometry" />
        </mxCell>
        <mxCell id="E01BiuHv0ZB0fYaHVFXP-85" value="" style="endArrow=classic;html=1;rounded=0;exitX=1;exitY=0.5;exitDx=0;exitDy=0;" edge="1" parent="1" source="E01BiuHv0ZB0fYaHVFXP-90">
          <mxGeometry width="50" height="50" relative="1" as="geometry">
            <mxPoint x="-1048" y="-1679.88" as="sourcePoint" />
            <mxPoint x="-980" y="-1679.67" as="targetPoint" />
          </mxGeometry>
        </mxCell>
        <mxCell id="E01BiuHv0ZB0fYaHVFXP-86" value="" style="endArrow=none;html=1;rounded=0;" edge="1" parent="1">
          <mxGeometry width="50" height="50" relative="1" as="geometry">
            <mxPoint x="-1050" y="-1599.67" as="sourcePoint" />
            <mxPoint x="-1050" y="-1679.67" as="targetPoint" />
          </mxGeometry>
        </mxCell>
        <mxCell id="E01BiuHv0ZB0fYaHVFXP-87" value="" style="endArrow=classic;html=1;rounded=0;exitX=1;exitY=0.5;exitDx=0;exitDy=0;" edge="1" parent="1">
          <mxGeometry width="50" height="50" relative="1" as="geometry">
            <mxPoint x="-1048" y="-1598.88" as="sourcePoint" />
            <mxPoint x="-980" y="-1598.67" as="targetPoint" />
          </mxGeometry>
        </mxCell>
        <mxCell id="E01BiuHv0ZB0fYaHVFXP-88" value="" style="endArrow=none;html=1;rounded=0;" edge="1" parent="1">
          <mxGeometry width="50" height="50" relative="1" as="geometry">
            <mxPoint x="-1050" y="-1649.67" as="sourcePoint" />
            <mxPoint x="-1128" y="-1649.67" as="targetPoint" />
          </mxGeometry>
        </mxCell>
        <mxCell id="E01BiuHv0ZB0fYaHVFXP-89" value="" style="endArrow=classic;html=1;rounded=0;exitX=1;exitY=0.5;exitDx=0;exitDy=0;" edge="1" parent="1" target="E01BiuHv0ZB0fYaHVFXP-90">
          <mxGeometry width="50" height="50" relative="1" as="geometry">
            <mxPoint x="-1048" y="-1679.88" as="sourcePoint" />
            <mxPoint x="-980" y="-1679.67" as="targetPoint" />
          </mxGeometry>
        </mxCell>
        <mxCell id="E01BiuHv0ZB0fYaHVFXP-90" value="" style="ellipse;whiteSpace=wrap;html=1;fillColor=light-dark(#FFFFFF,#000000);" vertex="1" parent="1">
          <mxGeometry x="-1055.5" y="-1689.67" width="20" height="20" as="geometry" />
        </mxCell>
        <mxCell id="E01BiuHv0ZB0fYaHVFXP-91" value="" style="ellipse;whiteSpace=wrap;html=1;fillColor=light-dark(#FFFFFF,#000000);" vertex="1" parent="1">
          <mxGeometry x="-1055.5" y="-1609.67" width="20" height="20" as="geometry" />
        </mxCell>
        <mxCell id="E01BiuHv0ZB0fYaHVFXP-92" value="" style="edgeStyle=orthogonalEdgeStyle;rounded=0;orthogonalLoop=1;jettySize=auto;html=1;" edge="1" parent="1" source="E01BiuHv0ZB0fYaHVFXP-93" target="E01BiuHv0ZB0fYaHVFXP-95">
          <mxGeometry relative="1" as="geometry" />
        </mxCell>
        <mxCell id="E01BiuHv0ZB0fYaHVFXP-93" value="Register Infant Profile" style="whiteSpace=wrap;html=1;fontSize=17.2;fillColor=#9391ff;strokeColor=light-dark(#000000,transparent);spacing=3.8;rounded=1;absoluteArcSize=1;arcSize=12;strokeWidth=0.8;" vertex="1" parent="1">
          <mxGeometry x="-1360" y="-2369.67" width="120" height="60" as="geometry" />
        </mxCell>
        <mxCell id="E01BiuHv0ZB0fYaHVFXP-94" value="" style="edgeStyle=orthogonalEdgeStyle;rounded=0;orthogonalLoop=1;jettySize=auto;html=1;" edge="1" parent="1" source="E01BiuHv0ZB0fYaHVFXP-95" target="E01BiuHv0ZB0fYaHVFXP-142">
          <mxGeometry relative="1" as="geometry" />
        </mxCell>
        <mxCell id="E01BiuHv0ZB0fYaHVFXP-95" value="Input:&lt;div&gt;Infant Nickname Birthday&amp;nbsp;&lt;/div&gt;&lt;div&gt;Parent&#39;s Address&lt;/div&gt;" style="shape=parallelogram;perimeter=parallelogramPerimeter;whiteSpace=wrap;html=1;fixedSize=1;fontSize=17.2;fillColor=light-dark(#9391FF,#009079);strokeColor=none;spacing=3.8;rounded=1;absoluteArcSize=1;arcSize=12;strokeWidth=0.8;" vertex="1" parent="1">
          <mxGeometry x="-1149" y="-2404.67" width="180" height="130" as="geometry" />
        </mxCell>
        <mxCell id="E01BiuHv0ZB0fYaHVFXP-96" value="" style="edgeStyle=orthogonalEdgeStyle;rounded=0;orthogonalLoop=1;jettySize=auto;html=1;exitX=1;exitY=0.5;exitDx=0;exitDy=0;" edge="1" parent="1" source="E01BiuHv0ZB0fYaHVFXP-142" target="E01BiuHv0ZB0fYaHVFXP-99">
          <mxGeometry relative="1" as="geometry">
            <mxPoint x="-751" y="-2339.67" as="sourcePoint" />
          </mxGeometry>
        </mxCell>
        <mxCell id="E01BiuHv0ZB0fYaHVFXP-97" value="" style="edgeStyle=orthogonalEdgeStyle;rounded=0;orthogonalLoop=1;jettySize=auto;html=1;" edge="1" parent="1" source="E01BiuHv0ZB0fYaHVFXP-99" target="E01BiuHv0ZB0fYaHVFXP-100">
          <mxGeometry relative="1" as="geometry" />
        </mxCell>
        <mxCell id="E01BiuHv0ZB0fYaHVFXP-98" value="" style="edgeStyle=orthogonalEdgeStyle;rounded=0;orthogonalLoop=1;jettySize=auto;html=1;" edge="1" parent="1" source="E01BiuHv0ZB0fYaHVFXP-99" target="E01BiuHv0ZB0fYaHVFXP-102">
          <mxGeometry relative="1" as="geometry" />
        </mxCell>
        <mxCell id="E01BiuHv0ZB0fYaHVFXP-99" value="First Vaccine" style="rhombus;whiteSpace=wrap;html=1;fontSize=17.2;fillColor=light-dark(#9391FF,transparent);strokeColor=light-dark(transparent,#CC0000);spacing=3.8;rounded=1;absoluteArcSize=1;arcSize=12;strokeWidth=0.8;" vertex="1" parent="1">
          <mxGeometry x="-631.5" y="-2379.67" width="131.5" height="80" as="geometry" />
        </mxCell>
        <mxCell id="E01BiuHv0ZB0fYaHVFXP-100" value="Manual Entry" style="shape=parallelogram;perimeter=parallelogramPerimeter;whiteSpace=wrap;html=1;fixedSize=1;fontSize=17.2;fillColor=light-dark(#9391FF,#00C2A8);strokeColor=none;spacing=3.8;rounded=1;absoluteArcSize=1;arcSize=12;strokeWidth=0.8;" vertex="1" parent="1">
          <mxGeometry x="-643.63" y="-2479.67" width="155.75" height="60" as="geometry" />
        </mxCell>
        <mxCell id="E01BiuHv0ZB0fYaHVFXP-101" value="" style="edgeStyle=orthogonalEdgeStyle;rounded=0;orthogonalLoop=1;jettySize=auto;html=1;" edge="1" parent="1" source="E01BiuHv0ZB0fYaHVFXP-102" target="E01BiuHv0ZB0fYaHVFXP-104">
          <mxGeometry relative="1" as="geometry" />
        </mxCell>
        <mxCell id="E01BiuHv0ZB0fYaHVFXP-102" value="Auto-Input" style="shape=parallelogram;perimeter=parallelogramPerimeter;whiteSpace=wrap;html=1;fixedSize=1;fontSize=17.2;fillColor=light-dark(#9391FF,#00C2A8);strokeColor=none;spacing=3.8;rounded=1;absoluteArcSize=1;arcSize=12;strokeWidth=0.8;" vertex="1" parent="1">
          <mxGeometry x="-460" y="-2369.67" width="115.75" height="60" as="geometry" />
        </mxCell>
        <mxCell id="E01BiuHv0ZB0fYaHVFXP-103" value="" style="edgeStyle=orthogonalEdgeStyle;rounded=0;orthogonalLoop=1;jettySize=auto;html=1;" edge="1" parent="1" source="E01BiuHv0ZB0fYaHVFXP-104" target="E01BiuHv0ZB0fYaHVFXP-106">
          <mxGeometry relative="1" as="geometry" />
        </mxCell>
        <mxCell id="E01BiuHv0ZB0fYaHVFXP-104" value="System Calculates Vaccine Schedule (2nd to 5th)" style="whiteSpace=wrap;html=1;fontSize=17.2;fillColor=light-dark(#9391FF,#9391FF);strokeColor=none;spacing=3.8;rounded=1;absoluteArcSize=1;arcSize=12;strokeWidth=0.8;" vertex="1" parent="1">
          <mxGeometry x="-300" y="-2374.67" width="176.38" height="70" as="geometry" />
        </mxCell>
        <mxCell id="E01BiuHv0ZB0fYaHVFXP-105" value="" style="edgeStyle=orthogonalEdgeStyle;rounded=0;orthogonalLoop=1;jettySize=auto;html=1;" edge="1" parent="1" source="E01BiuHv0ZB0fYaHVFXP-106" target="E01BiuHv0ZB0fYaHVFXP-119">
          <mxGeometry relative="1" as="geometry" />
        </mxCell>
        <mxCell id="E01BiuHv0ZB0fYaHVFXP-106" value="Display Countdown Timers" style="whiteSpace=wrap;html=1;fontSize=17.2;fillColor=light-dark(#9391FF,#9391FF);strokeColor=none;spacing=3.8;rounded=1;absoluteArcSize=1;arcSize=12;strokeWidth=0.8;" vertex="1" parent="1">
          <mxGeometry x="-70" y="-2369.67" width="151.8" height="60" as="geometry" />
        </mxCell>
        <mxCell id="E01BiuHv0ZB0fYaHVFXP-107" value="Recommended Diet" style="whiteSpace=wrap;html=1;fontSize=17.2;fillColor=#00c2a8;spacing=3.8;rounded=1;absoluteArcSize=1;arcSize=12;strokeWidth=0.8;" vertex="1" parent="1">
          <mxGeometry x="-799" y="-1010.6700000000001" width="120" height="60" as="geometry" />
        </mxCell>
        <mxCell id="E01BiuHv0ZB0fYaHVFXP-108" value="" style="endArrow=none;html=1;rounded=0;" edge="1" parent="1">
          <mxGeometry width="50" height="50" relative="1" as="geometry">
            <mxPoint x="-870" y="-889.6700000000001" as="sourcePoint" />
            <mxPoint x="-870" y="-979.6700000000001" as="targetPoint" />
          </mxGeometry>
        </mxCell>
        <mxCell id="E01BiuHv0ZB0fYaHVFXP-109" value="" style="endArrow=classic;html=1;rounded=0;" edge="1" parent="1" source="E01BiuHv0ZB0fYaHVFXP-114">
          <mxGeometry width="50" height="50" relative="1" as="geometry">
            <mxPoint x="-870" y="-889.6700000000001" as="sourcePoint" />
            <mxPoint x="-800" y="-889.6700000000001" as="targetPoint" />
          </mxGeometry>
        </mxCell>
        <mxCell id="E01BiuHv0ZB0fYaHVFXP-110" value="Recommended Exercises" style="whiteSpace=wrap;html=1;fontSize=17.2;fillColor=#00c2a8;spacing=3.8;rounded=1;absoluteArcSize=1;arcSize=12;strokeWidth=0.8;" vertex="1" parent="1">
          <mxGeometry x="-799" y="-919.6700000000001" width="120" height="60" as="geometry" />
        </mxCell>
        <mxCell id="E01BiuHv0ZB0fYaHVFXP-111" value="" style="edgeStyle=orthogonalEdgeStyle;rounded=0;orthogonalLoop=1;jettySize=auto;html=1;" edge="1" parent="1" source="E01BiuHv0ZB0fYaHVFXP-15" target="E01BiuHv0ZB0fYaHVFXP-112">
          <mxGeometry relative="1" as="geometry">
            <mxPoint x="-923" y="-980.6700000000001" as="sourcePoint" />
            <mxPoint x="-799" y="-980.6700000000001" as="targetPoint" />
          </mxGeometry>
        </mxCell>
        <mxCell id="E01BiuHv0ZB0fYaHVFXP-112" value="" style="ellipse;whiteSpace=wrap;html=1;fillColor=light-dark(#FFFFFF,#000000);rotation=5;" vertex="1" parent="1">
          <mxGeometry x="-880" y="-990.6700000000001" width="20" height="20" as="geometry" />
        </mxCell>
        <mxCell id="E01BiuHv0ZB0fYaHVFXP-113" value="" style="endArrow=classic;html=1;rounded=0;" edge="1" parent="1" target="E01BiuHv0ZB0fYaHVFXP-114">
          <mxGeometry width="50" height="50" relative="1" as="geometry">
            <mxPoint x="-870" y="-889.6700000000001" as="sourcePoint" />
            <mxPoint x="-800" y="-889.6700000000001" as="targetPoint" />
          </mxGeometry>
        </mxCell>
        <mxCell id="E01BiuHv0ZB0fYaHVFXP-114" value="" style="ellipse;whiteSpace=wrap;html=1;fillColor=light-dark(#FFFFFF,#000000);rotation=5;" vertex="1" parent="1">
          <mxGeometry x="-880" y="-899.6700000000001" width="20" height="20" as="geometry" />
        </mxCell>
        <mxCell id="E01BiuHv0ZB0fYaHVFXP-115" style="edgeStyle=orthogonalEdgeStyle;rounded=0;orthogonalLoop=1;jettySize=auto;html=1;exitX=0.5;exitY=0;exitDx=0;exitDy=0;entryX=0.5;entryY=0;entryDx=0;entryDy=0;" edge="1" parent="1" source="E01BiuHv0ZB0fYaHVFXP-119" target="E01BiuHv0ZB0fYaHVFXP-106">
          <mxGeometry relative="1" as="geometry" />
        </mxCell>
        <mxCell id="E01BiuHv0ZB0fYaHVFXP-116" value="No" style="edgeLabel;html=1;align=center;verticalAlign=middle;resizable=0;points=[];" vertex="1" connectable="0" parent="E01BiuHv0ZB0fYaHVFXP-115">
          <mxGeometry x="-0.319" y="-2" relative="1" as="geometry">
            <mxPoint as="offset" />
          </mxGeometry>
        </mxCell>
        <mxCell id="E01BiuHv0ZB0fYaHVFXP-117" value="" style="edgeStyle=orthogonalEdgeStyle;rounded=0;orthogonalLoop=1;jettySize=auto;html=1;" edge="1" parent="1" source="E01BiuHv0ZB0fYaHVFXP-119" target="E01BiuHv0ZB0fYaHVFXP-122">
          <mxGeometry relative="1" as="geometry" />
        </mxCell>
        <mxCell id="E01BiuHv0ZB0fYaHVFXP-118" value="Yes&lt;div&gt;&lt;br&gt;&lt;/div&gt;" style="edgeLabel;html=1;align=center;verticalAlign=middle;resizable=0;points=[];" vertex="1" connectable="0" parent="E01BiuHv0ZB0fYaHVFXP-117">
          <mxGeometry x="-0.4815" y="-3" relative="1" as="geometry">
            <mxPoint x="1" as="offset" />
          </mxGeometry>
        </mxCell>
        <mxCell id="E01BiuHv0ZB0fYaHVFXP-119" value="&lt;div&gt;Schedule today?&lt;/div&gt;" style="rhombus;whiteSpace=wrap;html=1;fontSize=17.2;fillColor=light-dark(#9391FF,transparent);strokeColor=light-dark(transparent,#CC0000);spacing=3.8;rounded=1;absoluteArcSize=1;arcSize=12;strokeWidth=0.8;" vertex="1" parent="1">
          <mxGeometry x="120" y="-2399.67" width="230" height="120" as="geometry" />
        </mxCell>
        <mxCell id="E01BiuHv0ZB0fYaHVFXP-120" value="" style="edgeStyle=orthogonalEdgeStyle;rounded=0;orthogonalLoop=1;jettySize=auto;html=1;" edge="1" parent="1" source="E01BiuHv0ZB0fYaHVFXP-122" target="E01BiuHv0ZB0fYaHVFXP-124">
          <mxGeometry relative="1" as="geometry" />
        </mxCell>
        <mxCell id="E01BiuHv0ZB0fYaHVFXP-121" value="" style="edgeStyle=orthogonalEdgeStyle;rounded=0;orthogonalLoop=1;jettySize=auto;html=1;" edge="1" parent="1" source="E01BiuHv0ZB0fYaHVFXP-122" target="E01BiuHv0ZB0fYaHVFXP-135">
          <mxGeometry relative="1" as="geometry" />
        </mxCell>
        <mxCell id="E01BiuHv0ZB0fYaHVFXP-122" value="Push Notification Reminder Sent" style="whiteSpace=wrap;html=1;fontSize=17.2;fillColor=light-dark(#9391FF,#9391FF);strokeColor=none;spacing=3.8;rounded=1;absoluteArcSize=1;arcSize=12;strokeWidth=0.8;" vertex="1" parent="1">
          <mxGeometry x="420" y="-2379.67" width="120" height="70" as="geometry" />
        </mxCell>
        <mxCell id="E01BiuHv0ZB0fYaHVFXP-123" value="" style="edgeStyle=orthogonalEdgeStyle;rounded=0;orthogonalLoop=1;jettySize=auto;html=1;" edge="1" parent="1" source="E01BiuHv0ZB0fYaHVFXP-124" target="E01BiuHv0ZB0fYaHVFXP-126">
          <mxGeometry relative="1" as="geometry" />
        </mxCell>
        <mxCell id="E01BiuHv0ZB0fYaHVFXP-124" value="Parent Selects Vaccination Facility" style="shape=parallelogram;perimeter=parallelogramPerimeter;whiteSpace=wrap;html=1;fixedSize=1;fontSize=17.2;fillColor=light-dark(#9391FF,#00C2A8);strokeColor=none;spacing=3.8;rounded=1;absoluteArcSize=1;arcSize=12;strokeWidth=0.8;" vertex="1" parent="1">
          <mxGeometry x="620" y="-2374.67" width="190" height="60" as="geometry" />
        </mxCell>
        <mxCell id="E01BiuHv0ZB0fYaHVFXP-125" value="" style="edgeStyle=orthogonalEdgeStyle;rounded=0;orthogonalLoop=1;jettySize=auto;html=1;" edge="1" parent="1" source="E01BiuHv0ZB0fYaHVFXP-126" target="E01BiuHv0ZB0fYaHVFXP-131">
          <mxGeometry relative="1" as="geometry" />
        </mxCell>
        <mxCell id="E01BiuHv0ZB0fYaHVFXP-126" value="List of Available/Nearest Facilities" style="whiteSpace=wrap;html=1;fontSize=17.2;fillColor=light-dark(#9391FF,#9391FF);strokeColor=none;spacing=3.8;rounded=1;absoluteArcSize=1;arcSize=12;strokeWidth=0.8;" vertex="1" parent="1">
          <mxGeometry x="850" y="-2374.67" width="150" height="60" as="geometry" />
        </mxCell>
        <mxCell id="E01BiuHv0ZB0fYaHVFXP-127" value="" style="edgeStyle=orthogonalEdgeStyle;rounded=0;orthogonalLoop=1;jettySize=auto;html=1;" edge="1" parent="1" source="E01BiuHv0ZB0fYaHVFXP-131" target="E01BiuHv0ZB0fYaHVFXP-133">
          <mxGeometry relative="1" as="geometry" />
        </mxCell>
        <mxCell id="E01BiuHv0ZB0fYaHVFXP-128" value="No&lt;div&gt;&lt;br&gt;&lt;/div&gt;" style="edgeLabel;html=1;align=center;verticalAlign=middle;resizable=0;points=[];" vertex="1" connectable="0" parent="E01BiuHv0ZB0fYaHVFXP-127">
          <mxGeometry x="-0.1275" relative="1" as="geometry">
            <mxPoint as="offset" />
          </mxGeometry>
        </mxCell>
        <mxCell id="E01BiuHv0ZB0fYaHVFXP-129" value="" style="edgeStyle=orthogonalEdgeStyle;rounded=0;orthogonalLoop=1;jettySize=auto;html=1;" edge="1" parent="1" source="E01BiuHv0ZB0fYaHVFXP-131" target="E01BiuHv0ZB0fYaHVFXP-139">
          <mxGeometry relative="1" as="geometry" />
        </mxCell>
        <mxCell id="E01BiuHv0ZB0fYaHVFXP-130" value="Yes" style="edgeLabel;html=1;align=center;verticalAlign=middle;resizable=0;points=[];" vertex="1" connectable="0" parent="E01BiuHv0ZB0fYaHVFXP-129">
          <mxGeometry x="-0.3185" y="4" relative="1" as="geometry">
            <mxPoint as="offset" />
          </mxGeometry>
        </mxCell>
        <mxCell id="E01BiuHv0ZB0fYaHVFXP-131" value="Immunization&lt;div&gt;accomplished?&lt;/div&gt;" style="rhombus;whiteSpace=wrap;html=1;fontSize=17.2;fillColor=light-dark(#9391FF,transparent);strokeColor=light-dark(transparent,#CC0000);spacing=3.8;rounded=1;absoluteArcSize=1;arcSize=12;strokeWidth=0.8;" vertex="1" parent="1">
          <mxGeometry x="1030" y="-2397.17" width="190" height="105" as="geometry" />
        </mxCell>
        <mxCell id="E01BiuHv0ZB0fYaHVFXP-132" style="edgeStyle=orthogonalEdgeStyle;rounded=0;orthogonalLoop=1;jettySize=auto;html=1;entryX=0.5;entryY=0;entryDx=0;entryDy=0;" edge="1" parent="1" source="E01BiuHv0ZB0fYaHVFXP-133" target="E01BiuHv0ZB0fYaHVFXP-122">
          <mxGeometry relative="1" as="geometry" />
        </mxCell>
        <mxCell id="E01BiuHv0ZB0fYaHVFXP-133" value="Not Marked" style="whiteSpace=wrap;html=1;fontSize=17.2;fillColor=light-dark(#9391FF,#9391FF);strokeColor=none;spacing=3.8;rounded=1;absoluteArcSize=1;arcSize=12;strokeWidth=0.8;" vertex="1" parent="1">
          <mxGeometry x="1065" y="-2559.67" width="120" height="60" as="geometry" />
        </mxCell>
        <mxCell id="E01BiuHv0ZB0fYaHVFXP-134" style="edgeStyle=orthogonalEdgeStyle;rounded=0;orthogonalLoop=1;jettySize=auto;html=1;" edge="1" parent="1" source="E01BiuHv0ZB0fYaHVFXP-135">
          <mxGeometry relative="1" as="geometry">
            <mxPoint x="710" y="-2309.67" as="targetPoint" />
          </mxGeometry>
        </mxCell>
        <mxCell id="E01BiuHv0ZB0fYaHVFXP-135" value="Reminder Sent: &quot;Missed Vaccine – Please Reschedule" style="whiteSpace=wrap;html=1;fontSize=17.2;fillColor=light-dark(#9391FF,#9391FF);strokeColor=none;spacing=3.8;rounded=1;absoluteArcSize=1;arcSize=12;strokeWidth=0.8;" vertex="1" parent="1">
          <mxGeometry x="360" y="-2239.67" width="240" height="60" as="geometry" />
        </mxCell>
        <mxCell id="E01BiuHv0ZB0fYaHVFXP-136" style="edgeStyle=orthogonalEdgeStyle;rounded=0;orthogonalLoop=1;jettySize=auto;html=1;entryX=0.5;entryY=1;entryDx=0;entryDy=0;" edge="1" parent="1" source="E01BiuHv0ZB0fYaHVFXP-139" target="E01BiuHv0ZB0fYaHVFXP-104">
          <mxGeometry relative="1" as="geometry">
            <Array as="points">
              <mxPoint x="1417" y="-2089.67" />
              <mxPoint x="680" y="-2089.67" />
              <mxPoint x="680" y="-2129.67" />
              <mxPoint x="-212" y="-2129.67" />
            </Array>
          </mxGeometry>
        </mxCell>
        <mxCell id="E01BiuHv0ZB0fYaHVFXP-137" value="No" style="edgeLabel;html=1;align=center;verticalAlign=middle;resizable=0;points=[];" vertex="1" connectable="0" parent="E01BiuHv0ZB0fYaHVFXP-136">
          <mxGeometry x="-0.954" y="2" relative="1" as="geometry">
            <mxPoint y="1" as="offset" />
          </mxGeometry>
        </mxCell>
        <mxCell id="E01BiuHv0ZB0fYaHVFXP-138" value="" style="edgeStyle=orthogonalEdgeStyle;rounded=0;orthogonalLoop=1;jettySize=auto;html=1;" edge="1" parent="1" source="E01BiuHv0ZB0fYaHVFXP-139" target="E01BiuHv0ZB0fYaHVFXP-141">
          <mxGeometry relative="1" as="geometry" />
        </mxCell>
        <mxCell id="E01BiuHv0ZB0fYaHVFXP-139" value="5th vaccine?" style="rhombus;whiteSpace=wrap;html=1;fontSize=17.2;fillColor=light-dark(#9391FF,transparent);strokeColor=light-dark(transparent,#CC0000);spacing=3.8;rounded=1;absoluteArcSize=1;arcSize=12;strokeWidth=0.8;" vertex="1" parent="1">
          <mxGeometry x="1355" y="-2384.67" width="125" height="80" as="geometry" />
        </mxCell>
        <mxCell id="E01BiuHv0ZB0fYaHVFXP-140" value="" style="edgeStyle=orthogonalEdgeStyle;rounded=0;orthogonalLoop=1;jettySize=auto;html=1;" edge="1" parent="1" source="E01BiuHv0ZB0fYaHVFXP-141" target="E01BiuHv0ZB0fYaHVFXP-147">
          <mxGeometry relative="1" as="geometry" />
        </mxCell>
        <mxCell id="E01BiuHv0ZB0fYaHVFXP-141" value="Show Summary / Completion Status" style="whiteSpace=wrap;html=1;fontSize=17.2;fillColor=light-dark(#9391FF,#9391FF);strokeColor=none;spacing=3.8;rounded=1;absoluteArcSize=1;arcSize=12;strokeWidth=0.8;" vertex="1" parent="1">
          <mxGeometry x="1562.5" y="-2374.67" width="157.5" height="60" as="geometry" />
        </mxCell>
        <mxCell id="E01BiuHv0ZB0fYaHVFXP-142" value="System Logs Data in Real-Time" style="shape=step;perimeter=stepPerimeter;whiteSpace=wrap;html=1;fixedSize=1;fontSize=17.2;fillColor=light-dark(#9391FF,#CDA2BE);strokeColor=none;spacing=3.8;rounded=1;absoluteArcSize=1;arcSize=12;strokeWidth=0.8;" vertex="1" parent="1">
          <mxGeometry x="-890" y="-2379.67" width="170" height="80" as="geometry" />
        </mxCell>
        <mxCell id="E01BiuHv0ZB0fYaHVFXP-143" style="edgeStyle=orthogonalEdgeStyle;rounded=0;orthogonalLoop=1;jettySize=auto;html=1;entryX=0.5;entryY=0;entryDx=0;entryDy=0;" edge="1" parent="1" source="E01BiuHv0ZB0fYaHVFXP-147" target="E01BiuHv0ZB0fYaHVFXP-68">
          <mxGeometry relative="1" as="geometry">
            <Array as="points">
              <mxPoint x="1870" y="-2589.67" />
              <mxPoint x="-1500" y="-2589.67" />
            </Array>
          </mxGeometry>
        </mxCell>
        <mxCell id="E01BiuHv0ZB0fYaHVFXP-144" value="Yes" style="edgeLabel;html=1;align=center;verticalAlign=middle;resizable=0;points=[];" vertex="1" connectable="0" parent="E01BiuHv0ZB0fYaHVFXP-143">
          <mxGeometry x="-0.9589" y="-4" relative="1" as="geometry">
            <mxPoint as="offset" />
          </mxGeometry>
        </mxCell>
        <mxCell id="E01BiuHv0ZB0fYaHVFXP-145" style="edgeStyle=orthogonalEdgeStyle;rounded=0;orthogonalLoop=1;jettySize=auto;html=1;exitX=1;exitY=0.5;exitDx=0;exitDy=0;" edge="1" parent="1" source="E01BiuHv0ZB0fYaHVFXP-147" target="E01BiuHv0ZB0fYaHVFXP-3">
          <mxGeometry relative="1" as="geometry">
            <Array as="points">
              <mxPoint x="1990" y="-2344.67" />
              <mxPoint x="1990" y="-2759.67" />
              <mxPoint x="-1819" y="-2759.67" />
            </Array>
          </mxGeometry>
        </mxCell>
        <mxCell id="E01BiuHv0ZB0fYaHVFXP-146" value="No" style="edgeLabel;html=1;align=center;verticalAlign=middle;resizable=0;points=[];" vertex="1" connectable="0" parent="E01BiuHv0ZB0fYaHVFXP-145">
          <mxGeometry x="-0.9134" y="5" relative="1" as="geometry">
            <mxPoint as="offset" />
          </mxGeometry>
        </mxCell>
        <mxCell id="E01BiuHv0ZB0fYaHVFXP-147" value="Return homepage?" style="rhombus;whiteSpace=wrap;html=1;fontSize=17.2;fillColor=light-dark(#9391FF,transparent);strokeColor=light-dark(transparent,#CC0000);spacing=3.8;rounded=1;absoluteArcSize=1;arcSize=12;strokeWidth=0.8;" vertex="1" parent="1">
          <mxGeometry x="1790" y="-2399.67" width="160" height="110" as="geometry" />
        </mxCell>
      </root>
    </mxGraphModel>
  </diagram>
</mxfile>
